<svg xmlns="http://www.w3.org/2000/svg" width="482.883" height="626.638" viewBox="0 0 482.883 626.638">
  <defs>
    <style>
      .cls-1 {
        fill: red;
      }

      .cls-2 {
        fill: #66dac7;
      }

      .cls-3 {
        fill: none;
      }
    </style>
  </defs>
  <g id="Mocha_logo_w" data-name="Mocha logo w" transform="translate(-0.07 -0.011)">
    <line id="Line_5" data-name="Line 5" class="cls-1" y1="0.218" transform="translate(201.914 397.06)"/>
    <path id="Path_1" data-name="Path 1" class="cls-2" d="M1234.341,258.548c-.118,1.311-.219,2.6-.353,3.9a160.5,160.5,0,0,1-5.9,29.457,169.078,169.078,0,0,1-10.872,27.255c-1.075,2.184-2.2,4.335-3.361,6.486a193.368,193.368,0,0,1-10.586,17.039l-.958,1.361c-2.773,3.361-5.394,6.923-7.83,10.452-17.761,25.205-28.65,52.545-31.675,81.581-3.932,37.926,5.9,75.767,27.39,112.2,2.1,3.546-8.066,4.419-10.788.924a257.952,257.952,0,0,1-30.7-49.57,200.318,200.318,0,0,1-11.006-29.507,165.364,165.364,0,0,1-6-58.443c.1-1.294.2-2.588.353-3.9a163.352,163.352,0,0,1,15.745-54.662,193.8,193.8,0,0,1,16.165-27.272l1.395-1.68,1.831-2.4a9.278,9.278,0,0,0,.605-.807c1.193-1.563,2.352-3.159,3.361-4.739a191.782,191.782,0,0,0,15.862-26.6,163.66,163.66,0,0,0,16.1-55.452,160.569,160.569,0,0,0-.134-34.212c-2.924-26.415-12.267-52.6-27.339-78.086-2.084-3.546,8.083-4.436,10.8-.958C1220.8,164.919,1238.054,211.616,1234.341,258.548Z" transform="translate(-968.372 -118.7)"/>
    <path id="Path_2" data-name="Path 2" class="cls-2" d="M1282,284.534c-.118,1.176-.235,2.352-.386,3.529a144.555,144.555,0,0,1-3.579,18.837c-.672,2.621-1.428,5.209-2.251,7.78a147.891,147.891,0,0,1-5.411,14.417,157.489,157.489,0,0,1-7.982,15.98,182.815,182.815,0,0,1-10.636,16.484c-2.554,3.058-5.041,6.184-7.209,9.343-16.367,22.584-26.634,47.2-29.91,73.5a143.59,143.59,0,0,0-1.075,14.669c-.706,29.473,7.427,58.93,23.256,87.58,1.8,3.26-7.293,3.882-9.645.672a233.259,233.259,0,0,1-26.432-45.5c-11.342-26.365-16.114-53.25-13.443-80.069.118-1.193.235-2.369.386-3.546,3.361-26.415,13.661-51.133,30.146-73.8,1.008-1.227,1.983-2.47,2.94-3.714a7.663,7.663,0,0,0,.571-.723c1.092-1.411,2.151-2.823,3.159-4.251a173.038,173.038,0,0,0,10.536-16.2q2.2-3.814,4.151-7.662a154.433,154.433,0,0,0,6.352-14.182,147.589,147.589,0,0,0,9.124-35.792c4.285-34.4-3.747-68.894-22.231-102.367-1.8-3.243,7.293-3.882,9.645-.672,20.971,28.566,34.346,58.291,38.883,88.235A148.7,148.7,0,0,1,1282,284.534Z" transform="translate(-930.718 -92.83)"/>
    <path id="Path_3" data-name="Path 3" class="cls-2" d="M1517.233,443.427c0,120.729-97.011,219.048-217.726,220.664-101.809,1.344-188.885-67.349-215.368-160.927-26.768-14.048-46.109-42.7-49.789-76.691V406.644c0-10.922,7.948-19.761,17.745-19.761h31.2a221.236,221.236,0,0,1,132.143-148.711.958.958,0,0,1,1.142,1.395,177.925,177.925,0,0,0-15.123,30.246,2.47,2.47,0,0,1-1.076,1.227,197.34,197.34,0,0,0,98.922,369.677c107.123-1.58,194.1-89.647,194.383-196.786A197.256,197.256,0,0,0,1387.829,268.57a1.68,1.68,0,0,1-.672-2.117,153.944,153.944,0,0,0,7.813-18.585,1.58,1.58,0,0,1,2.235-.907A220.613,220.613,0,0,1,1517.233,443.427Z" transform="translate(-1034.28 -37.462)"/>
    <path id="Path_4" data-name="Path 4" class="cls-3" d="M1173.05,401.63" transform="translate(-939.915 73.785)"/>
    <path id="Path_5" data-name="Path 5" class="cls-3" d="M1103.8,325" transform="translate(-987.029 21.649)"/>
    <path id="Path_6" data-name="Path 6" class="cls-2" d="M1259.65,296.155h0a7.175,7.175,0,0,0,1.681,10.082,123.472,123.472,0,0,1-64.643,224.713,7.343,7.343,0,0,0-6.889,8.133h0a7.377,7.377,0,0,0,7.662,6.621,138.058,138.058,0,0,0,72.087-251.3,7.192,7.192,0,0,0-9.9,1.748Z" transform="translate(-928.551 -0.017)"/>
    <path id="Path_7" data-name="Path 7" class="cls-2" d="M1115.756,361.46h0a6.906,6.906,0,0,0-6.923,7.226,137.789,137.789,0,0,0,91.243,122.531A6.906,6.906,0,0,0,1209,486.5l.168-.639a6.957,6.957,0,0,0-4.436-8.4,123.707,123.707,0,0,1-82.051-109.374,6.956,6.956,0,0,0-6.923-6.621Z" transform="translate(-983.61 46.455)"/>
    <path id="Path_8" data-name="Path 8" class="cls-2" d="M1232.151,267.989c-.2.588-.42,1.176-.639,1.68a96.038,96.038,0,0,1-4,9.208c-.622,1.26-1.277,2.5-1.949,3.73q-1.915,3.478-4.117,6.721-2.5,3.781-5.344,7.293t-6.469,7.276c-1.428,1.294-2.806,2.621-4.134,4a94.993,94.993,0,0,0-20.954,34.162q-1.362,3.646-2.437,7.36a112.043,112.043,0,0,0-3.7,47.184c.269,1.848-3.361,1.21-3.915-.689a135.236,135.236,0,0,1-4.218-25.978,106.413,106.413,0,0,1,5.646-42.21c.2-.588.42-1.176.638-1.764a97.765,97.765,0,0,1,22.013-34.4c.571-.521,1.126-1.042,1.68-1.58l.319-.3c.622-.6,1.244-1.21,1.832-1.832a86.561,86.561,0,0,0,6.385-7.141q1.395-1.68,2.688-3.462,2.353-3.176,4.453-6.553a96.442,96.442,0,0,0,8.5-17.257,109.4,109.4,0,0,0,5.192-54.511c-.269-1.848,3.361-1.21,3.915.689a123.435,123.435,0,0,1,3.361,49.083,100.8,100.8,0,0,1-4.755,19.29Z" transform="translate(-941.969 -64.876)"/>
  </g>
</svg>
